<svg width="240" height="240" viewBox="0 0 240 240" fill="none" xmlns="http://www.w3.org/2000/svg">
<rect width="240" height="240" rx="72" fill="#272746"/>
<path d="M77.9294 67.7517C83.3181 50.0768 99.6256 38 118.104 38H119L88.0706 172.248C82.6819 189.923 66.3744 202 47.8963 202H47L77.9294 67.7517Z" fill="#F9F9F9"/>
<path d="M159 38C176.673 38 191 52.3269 191 70V70H159C141.327 70 127 55.6731 127 38V38L159 38Z" fill="#F9F9F9"/>
<path d="M134 94C151.673 94 166 108.327 166 126V126H148C130.327 126 116 111.673 116 94V94H134Z" fill="#F9F9F9"/>
</svg>
